name processed_emg_signals
nRows=73
nColumns=7
 
endheader
time	RGLTMED	RRF	RADDLONG	RST	RTA	RGM
2.1751999999999985	-0.0386053286492824	-0.1918059140443802	-0.3172350525856018	-0.0413519516587257	-0.0215152241289615	0.0215152185410261
2.1851999999999983	-0.0163271557539701	0.0242618434131145	-0.3334096372127533	0.0434882119297981	0.0709544494748115	0.0822461247444152
2.1951999999999985	-0.0581368766725063	-0.0849927514791488	-0.0389105081558227	-0.0248722080141305	0.0434882119297981	0.0383001416921615
2.2051999999999983	-0.0193789601325988	-0.0303654558956623	0.2552834451198578	0.004730294458568	0.0184634141623973	-0.0184634178876876
2.215199999999998	0.0102235423400998	-0.0218204036355018	0.2226291298866272	-0.0233463048934936	-0.0364690646529197	-0.0041199382394552
2.2251999999999983	-0.0379949659109115	-0.0065613817423582	0.0785839632153511	0.0328068956732749	-0.0346379801630973	0.0074769183993339
2.235199999999998	0.0196841359138488	-0.0019836751744151	-0.0099183665588498	0.0273136459290981	-0.0422674939036369	0.0166323315352201
2.2451999999999983	-0.0090028252452611	-0.026092929765582	-0.155794620513916	-0.0892652794718742	0.0221255794167518	0.1393148601055145
2.255199999999998	-0.030975816771388	0.0117494445294141	0.0129701662808656	0.023041121661663	0.055695429444313	0.1033035740256309
2.2651999999999983	-0.0105287274345755	-0.0135805318132042	0.1191729605197906	-0.0373846068978309	0.0148012489080429	-0.0334172621369361
2.275199999999998	0.0035095727071166	-0.0288395546376705	0.1857022941112518	0.0215152185410261	-0.0022888556122779	-0.181124597787857
2.2851999999999983	-0.0331120789051055	-0.0346379801630973	0.1344319880008697	-0.0148012535646557	0.0129701662808656	-0.1005569547414779
2.295199999999998	-0.0132753513753414	-0.0248722080141305	-0.0010681338608264	-0.0059510208666324	-0.0074769230559468	0.0202944967895746
2.3051999999999984	-0.0221255831420421	-0.0025940360501408	-0.0569161549210548	-0.050507366657257	0.0044251140207052	0.0401312261819839
2.315199999999998	-0.0318913571536541	-0.0263981111347675	-0.0581368766725063	0.0196841359138488	0.0209048576653003	0.0917067229747772
2.3251999999999984	-0.004425118677318	-0.0422674939036369	-0.0782787874341011	-0.0041199382394552	-0.0074769230559468	0.1087968200445175
2.335199999999998	-0.0025940360501408	-0.0328068993985652	-0.0544747114181518	0.004730294458568	-0.0135805318132042	-0.0889600962400436
2.3451999999999984	-0.0297550950199365	-0.030060276389122	0.0132753467187285	0.0056458357721567	0.0111390836536884	0.0248722024261951
2.355199999999998	-0.0355535224080085	-0.0312809981405735	0.0260929241776466	0.0282291881740093	-0.0019836751744151	0.0016784900799393
2.365199999999998	-0.0233463048934936	-0.0056458404287695	0.0257877446711063	0.0328068956732749	0.0257877446711063	0.0617990344762802
2.375199999999998	-0.0004577729851007	-0.0352483429014682	0.0105287227779626	-0.0032043969258666	-0.0279240123927593	0.0184634141623973
2.385199999999998	-0.0096131861209869	-0.017853058874607	0.0050354748964309	-0.0025940360501408	0.0022888509556651	0.0416571274399757
2.395199999999998	-0.0215152241289615	-0.0373846068978309	-0.0157167948782444	-0.0022888556122779	0.000152587890625	0.0193789564073085
2.405199999999998	-0.0315861776471138	0.0300602708011865	-0.0199893210083246	0.0227359402924776	-0.0129701709374785	0.0212100371718406
2.4151999999999982	-0.0016784947365522	-0.0291447341442108	-0.0358587056398391	0.007171737961471	-0.0050354795530438	0.0209048576653003
2.425199999999998	-0.0175478775054216	-0.0312809981405735	-0.0749218016862869	-0.0016784947365522	0.0321965329349041	0.0212100371718406
2.4351999999999983	-0.0218204036355018	-0.0151064340025186	-0.1109330952167511	0.0093080010265111	0.0376897826790809	-0.0004577729851007
2.445199999999998	-0.0303654558956623	-0.0111390883103013	-0.3089951872825622	0.0035095727071166	-0.0019836751744151	0.0309758111834526
2.4551999999999983	-0.0050354795530438	-0.0321965366601944	0.0291447304189205	-0.0013733142986893	0.0065613770857453	-0.0135805318132042
2.465199999999998	-0.0172426961362361	-0.027618832886219	0.442664235830307	-0.0071717426180839	-0.0053406599909067	0.0187685936689376
2.4751999999999983	-0.0291447341442108	-0.0306706354022026	0.4191653430461883	-0.0016784947365522	0.0135805271565914	0.0178530532866716
2.485199999999998	-0.0236514862626791	-0.0257877483963966	0.1750209778547287	0.0080872792750597	-0.0126649904996156	0.0038147531449794
2.495199999999998	-0.0242618471384048	-0.0401312299072742	-0.0007629534229636	-0.0022888556122779	-0.0007629534229636	0.0038147531449794
2.505199999999998	-0.0224307645112276	-0.0508125461637973	-0.0743114352226257	-0.0071717426180839	-0.0273136515170335	-0.0495918244123458
2.515199999999998	-0.0193789601325988	-0.0135805318132042	-0.0642404854297638	0.0038147531449794	0.0022888509556651	-0.0123598100617527
2.525199999999998	-0.0126649904996156	-0.0437933951616287	-0.0758373439311981	-0.0102235469967126	-0.0096131861209869	-0.0007629534229636
2.535199999999998	-0.0245670266449451	-0.0721751749515533	-0.0621042214334011	-0.0102235469967126	-0.017853058874607	0.0117494445294141
2.545199999999998	-0.017853058874607	-0.039215687662363	-0.011749449186027	0.0294499099254608	-0.0019836751744151	-0.0166323371231555
2.555199999999998	-0.0212100427597761	-0.0123598100617527	-0.0569161549210548	0.0251773837953805	0.0068665575236082	-0.0105287274345755
2.565199999999998	-0.0105287274345755	-0.0190737806260585	-0.0993362367153167	0.0016784900799393	-0.0196841396391391	0.0090028205886483
2.575199999999998	-0.0199893210083246	-0.0157167948782444	-0.1139848977327346	0.0334172546863555	0.0038147531449794	0.0199893154203891
2.585199999999998	-0.0138857122510671	-0.0642404854297638	-0.08560311794281	-0.0236514862626791	-0.0074769230559468	0.0028992118313908
2.595199999999998	-0.006866562180221	-0.0126649904996156	-0.1304646432399749	-0.0059510208666324	0.0050354748964309	0.0248722024261951
2.605199999999998	-0.0291447341442108	-0.009308005683124	-0.1551842540502548	0.0050354748964309	0.0053406553342938	0.0227359402924776
2.615199999999998	-0.027618832886219	0.0215152185410261	-0.0999465957283973	0.0309758111834526	-0.0065613817423582	-0.0349431633949279
2.625199999999998	-0.02029450237751	-0.0035095773637294	-0.080720230937004	0.0068665575236082	-0.0102235469967126	0.026398105546832
2.635199999999998	-0.0205996818840503	-0.026092929765582	0.0428778491914272	-0.0028992164880037	-0.0086976448073983	0.0157167911529541
2.6451999999999978	-0.0102235469967126	-0.0267032906413078	0.2180514186620712	-0.0328068993985652	0.007171737961471	0.0163271501660347
2.655199999999998	-0.0160219743847847	-0.0086976448073983	0.1667811125516891	-0.0056458404287695	0.0059510162100195	0.0440985709428787
2.665199999999998	-0.0157167948782444	0.039520863443613	0.081330582499504	-0.0096131861209869	0.0059510162100195	-0.0157167948782444
2.675199999999998	-0.0151064340025186	0.0306706316769123	0.2085908204317093	0.0175478719174861	-0.004425118677318	-0.0102235469967126
2.685199999999998	-0.0138857122510671	-0.0199893210083246	0.0721751749515533	0.0019836705178022	-0.0321965366601944	-0.0404364094138145
2.695199999999998	-0.0273136515170335	-0.026092929765582	-0.1872282028198242	0.0123598054051399	0.0035095727071166	0.0126649858430027
2.705199999999998	-0.0242618471384048	-0.0102235469967126	-0.1927214562892913	0.0074769183993339	0.0871290117502212	0.0193789564073085
2.715199999999998	-0.0242618471384048	0.0312809944152832	-0.1637293100357055	0.0077820988371968	0.027924008667469	0.0260929241776466
2.725199999999998	-0.0144960731267929	-0.0679026469588279	-0.1060502082109451	0.0199893154203891	-0.0697337314486503	0.0273136459290981
2.735199999999998	-0.0129701709374785	-0.034332800656557	0.0492866374552249	0.0215152185410261	-0.0050354795530438	-0.0090028252452611
2.745199999999998	-0.0148012535646557	-0.0102235469967126	0.2201876789331436	-0.0233463048934936	0.0410467684268951	-0.0105287274345755
2.755199999999998	-0.0175478775054216	-0.0267032906413078	0.3880369365215301	-0.011749449186027	0.0032043922692537	0.0157167911529541
2.765199999999998	-0.0086976448073983	-0.0877393782138824	0.3492790162563324	0.0068665575236082	0.0453192926943302	0.0102235423400998
2.775199999999998	-0.0160219743847847	-0.0254825688898563	0.1124589890241622	0.0053406553342938	0.1048294752836227	0.0163271501660347
2.785199999999998	-0.0312809981405735	-0.0230411253869533	-0.0065613817423582	0.0025940313935279	-0.0550850704312324	0.0187685936689376
2.7951999999999977	-0.0169375166296958	0.0117494445294141	-0.0990310534834861	0.0025940313935279	0.1252765655517578	0.0132753467187285
2.805199999999998	-0.0114442687481641	-0.0016784947365522	-0.4286259412765503	0.0059510162100195	-0.0175478775054216	0.026398105546832
2.8151999999999977	-0.0306706354022026	-0.006866562180221	-0.3239490389823913	0.0099183619022369	-0.0535591691732406	-0.0007629534229636
2.825199999999998	-0.0175478775054216	-0.0242618471384048	-0.1872282028198242	-0.0086976448073983	-0.009308005683124	0.0019836705178022
2.8351999999999977	-0.0184634178876876	0.004730294458568	-0.0102235469967126	-0.0035095773637294	-0.0624094009399414	-0.0395208671689033
2.845199999999998	-0.0209048613905906	-0.0306706354022026	0.1454184800386428	-0.0041199382394552	-0.0065613817423582	0.0218203999102115
2.8551999999999977	-0.0138857122510671	-0.0001525925472378	0.2177462428808212	0.028839549049735	-0.0386053286492824	-0.0001525925472378
2.865199999999998	-0.0181582383811473	-0.0154116144403815	0.1155107915401458	0.0624093972146511	0.0398260429501533	0.027924008667469
2.8751999999999978	-0.0218204036355018	-0.028534373268485	-0.0257877483963966	0.0080872792750597	0.0050354748964309	0.0260929241776466
2.885199999999998	-0.0205996818840503	-0.1023880392313003	-0.0114442687481641	-0.0248722080141305	0.0315861739218235	0.0157167911529541
2.8951999999999978	-0.0172426961362361	-0.0007629534229636	0.1615930348634719	-0.0215152241289615	0.0025940313935279	0.007171737961471
